<svg xmlns="http://www.w3.org/2000/svg" width="20" height="20" viewBox="0 0 27 26">
  <path fill="#635db2" d="M295,1763.94a2.649,2.649,0,0,0-2.641-2.65h-6.37l0.927-2.55a0.036,0.036,0,0,1,.009-0.02,5.313,5.313,0,0,0-.326-4.1,2.9,2.9,0,0,0-2.611-1.62h-0.31a1.46,1.46,0,0,0-1.443,1.34,5.722,5.722,0,0,1-1.578,3.51l-5.1,5.21h-0.512v-0.89a0.877,0.877,0,0,0-.88-0.88H268.88a0.877,0.877,0,0,0-.88.88v15.94a0.886,0.886,0,0,0,.88.89h5.283a0.886,0.886,0,0,0,.88-0.89v-0.88h14.674a53.44,53.44,0,0,1,4.4-9.74A2.672,2.672,0,0,1,295,1763.94Zm-21.717,0v13.29h-3.522v-14.17h3.522v0.88h0Zm19.076,0.89h-2.642a0.885,0.885,0,0,0,0,1.77h1.761a0.885,0.885,0,0,1,0,1.77h-2.641a0.885,0.885,0,0,0,0,1.77H290.6a0.885,0.885,0,0,1,0,1.77h-0.881a0.611,0.611,0,0,0-.135.02H287.9a0.885,0.885,0,0,0,0,1.77h1.761c0.039,0,.078-0.01.116-0.01a0.886,0.886,0,0,1-.058,1.77H275.043v-10.63h0.881a0.878,0.878,0,0,0,.627-0.27l5.363-5.47a0.042,0.042,0,0,1,0-.01,7.478,7.478,0,0,0,2.043-4.31h0.027a1.152,1.152,0,0,1,1.036.65,3.477,3.477,0,0,1,.234,2.72l-1.357,3.73a0.89,0.89,0,0,0,.1.81,0.873,0.873,0,0,0,.722.38h7.631A0.885,0.885,0,0,1,292.359,1764.83Z" transform="translate(-268 -1753)"/>
</svg>
