<svg xmlns="http://www.w3.org/2000/svg" width="20" height="20" viewBox="0 0 32 21">
  <path fill="#635db2" d="M424.8,1766.86c-0.286-.4-7.1-9.86-15.8-9.86s-15.511,9.46-15.8,9.86a1.113,1.113,0,0,0,0,1.28c0.286,0.4,7.1,9.86,15.8,9.86s15.51-9.46,15.8-9.86A1.109,1.109,0,0,0,424.8,1766.86Zm-15.8,8.97c-6.408,0-11.958-6.28-13.6-8.33,1.641-2.05,7.179-8.33,13.6-8.33,6.407,0,11.957,6.28,13.6,8.33C420.959,1769.55,415.421,1775.83,409,1775.83Zm0-14.85a6.523,6.523,0,1,0,6.329,6.52A6.438,6.438,0,0,0,409,1760.98Zm0,10.86a4.342,4.342,0,1,1,4.219-4.34A4.282,4.282,0,0,1,409,1771.84Z" transform="translate(-393 -1757)"/>
</svg>
