<svg xmlns="http://www.w3.org/2000/svg" width="20" height="20" viewBox="0 0 28 24">
  <path fill="#635db2" d="M356.125,1760.98a12.622,12.622,0,0,0-5.094-3.64,19.116,19.116,0,0,0-14.062,0,12.622,12.622,0,0,0-5.094,3.64A7.777,7.777,0,0,0,330,1766a7.572,7.572,0,0,0,1.414,4.39,11.458,11.458,0,0,0,3.867,3.44,10.014,10.014,0,0,1-.406,1.19c-0.156.37-.3,0.68-0.422,0.92a6.127,6.127,0,0,1-.508.79,6.894,6.894,0,0,1-.484.62q-0.164.18-.539,0.6c-0.25.27-.412,0.45-0.485,0.53-0.01.01-.052,0.06-0.125,0.15s-0.109.13-.109,0.13l-0.094.14a0.31,0.31,0,0,0-.07.15,0.39,0.39,0,0,1-.031.15,0.209,0.209,0,0,0,.007.19v0.02a0.828,0.828,0,0,0,.25.43,0.618,0.618,0,0,0,.422.16h0.078a12.126,12.126,0,0,0,1.782-.34,17.035,17.035,0,0,0,7.187-3.79A19.776,19.776,0,0,0,344,1776a18.174,18.174,0,0,0,7.031-1.34,12.622,12.622,0,0,0,5.094-3.64A7.658,7.658,0,0,0,356.125,1760.98Zm-1.758,9a11.177,11.177,0,0,1-4.406,2.93A16.087,16.087,0,0,1,344,1774a16.35,16.35,0,0,1-2.032-.13l-0.89-.09-0.672.6a15.611,15.611,0,0,1-4.3,2.67,11.3,11.3,0,0,0,1.094-2.69l0.422-1.5-1.36-.78a9.594,9.594,0,0,1-3.148-2.74A5.711,5.711,0,0,1,332,1766a5.87,5.87,0,0,1,1.633-3.98,11.163,11.163,0,0,1,4.406-2.93,16.842,16.842,0,0,1,11.921,0,11.174,11.174,0,0,1,4.407,2.93A5.667,5.667,0,0,1,354.367,1769.98Z" transform="translate(-330 -1756)"/>
</svg>
