<svg xmlns="http://www.w3.org/2000/svg" width="20" height="20" viewBox="0 0 27 26">
  <path fill="#635db2" d="M284.407,2099.3h-3.526a0.888,0.888,0,0,0-.881.89v15.92a0.887,0.887,0,0,0,.881.89h3.526a0.887,0.887,0,0,0,.882-0.89v-15.92A0.888,0.888,0,0,0,284.407,2099.3Zm20.392,0c-0.142-.02-6.789,0-6.789,0l0.928-2.54c0.641-1.76.226-4.44-1.551-5.39a3.01,3.01,0,0,0-2.04-.3,1.459,1.459,0,0,0-.9.67,3.674,3.674,0,0,0-.282,1.26,5.461,5.461,0,0,1-1.495,2.87c-1.369,1.34-5.62,5.2-5.62,5.2v14.16h14.691A15.346,15.346,0,0,0,304.8,2099.3Z" transform="translate(-280 -2091)"/>
</svg>
